# xmcd CD database file
#
# Track frame offsets:
#	187
#	20409
#	44004
#	64244
#
# Disc length: 1167 seconds
#
# Revision: 0
# Processed by: cddbd v1.5PL3 Copyright (c) Steve Scherf et al.
# Submitted via: CDex 1.51
#
DISCID=33048d04
DTITLE=鵜島仁文 - H2
DYEAR=1900
DGENRE=Anime
TTITLE0=BACK TO THE GROUND
TTITLE1=Favorite Song
TTITLE2=BACK TO THE GROUND(VOCAL OFF VERSION)
TTITLE3=Favorite Song(VOCAL OFF VERSION
EXTD=
EXTT0=
EXTT1=
EXTT2=
EXTT3=
PLAYORDER=
